<mxfile host="Electron" agent="Mozilla/5.0 (Windows NT 10.0; Win64; x64) AppleWebKit/537.36 (KHTML, like Gecko) draw.io/27.0.5 Chrome/134.0.6998.205 Electron/35.3.0 Safari/537.36" version="27.0.5">
  <diagram name="binary_search" id="xHZK7wEC_hjBVgThkCd5">
    <mxGraphModel dx="1226" dy="849" grid="0" gridSize="10" guides="1" tooltips="1" connect="1" arrows="1" fold="1" page="1" pageScale="1" pageWidth="200" pageHeight="70" background="#ffffff" math="0" shadow="0">
      <root>
        <mxCell id="0" />
        <mxCell id="1" parent="0" />
        <mxCell id="JBs7FlKlPy1bEGtmJA6x-65" value="" style="rounded=0;whiteSpace=wrap;html=1;strokeColor=none;" vertex="1" parent="1">
          <mxGeometry width="600" height="350" as="geometry" />
        </mxCell>
        <mxCell id="JBs7FlKlPy1bEGtmJA6x-1" value="" style="rounded=0;whiteSpace=wrap;html=1;" vertex="1" parent="1">
          <mxGeometry x="100" y="20" width="40" height="40" as="geometry" />
        </mxCell>
        <mxCell id="JBs7FlKlPy1bEGtmJA6x-2" value="4" style="rounded=0;whiteSpace=wrap;html=1;" vertex="1" parent="1">
          <mxGeometry x="140" y="20" width="40" height="40" as="geometry" />
        </mxCell>
        <mxCell id="JBs7FlKlPy1bEGtmJA6x-3" value="27" style="rounded=0;whiteSpace=wrap;html=1;" vertex="1" parent="1">
          <mxGeometry x="420" y="20" width="40" height="40" as="geometry" />
        </mxCell>
        <mxCell id="JBs7FlKlPy1bEGtmJA6x-4" value="25" style="rounded=0;whiteSpace=wrap;html=1;" vertex="1" parent="1">
          <mxGeometry x="380" y="20" width="40" height="40" as="geometry" />
        </mxCell>
        <mxCell id="JBs7FlKlPy1bEGtmJA6x-5" value="21" style="rounded=0;whiteSpace=wrap;html=1;" vertex="1" parent="1">
          <mxGeometry x="340" y="20" width="40" height="40" as="geometry" />
        </mxCell>
        <mxCell id="JBs7FlKlPy1bEGtmJA6x-6" value="16" style="rounded=0;whiteSpace=wrap;html=1;fillColor=#ffe6cc;strokeColor=#d79b00;" vertex="1" parent="1">
          <mxGeometry x="300" y="20" width="40" height="40" as="geometry" />
        </mxCell>
        <mxCell id="JBs7FlKlPy1bEGtmJA6x-7" value="7" style="rounded=0;whiteSpace=wrap;html=1;" vertex="1" parent="1">
          <mxGeometry x="180" y="20" width="40" height="40" as="geometry" />
        </mxCell>
        <mxCell id="JBs7FlKlPy1bEGtmJA6x-8" value="9" style="rounded=0;whiteSpace=wrap;html=1;" vertex="1" parent="1">
          <mxGeometry x="220" y="20" width="40" height="40" as="geometry" />
        </mxCell>
        <mxCell id="JBs7FlKlPy1bEGtmJA6x-9" value="12" style="rounded=0;whiteSpace=wrap;html=1;" vertex="1" parent="1">
          <mxGeometry x="260" y="20" width="40" height="40" as="geometry" />
        </mxCell>
        <mxCell id="JBs7FlKlPy1bEGtmJA6x-10" value="1" style="rounded=0;whiteSpace=wrap;html=1;" vertex="1" parent="1">
          <mxGeometry x="100" y="20" width="40" height="40" as="geometry" />
        </mxCell>
        <mxCell id="JBs7FlKlPy1bEGtmJA6x-11" value="35" style="rounded=0;whiteSpace=wrap;html=1;" vertex="1" parent="1">
          <mxGeometry x="500" y="20" width="40" height="40" as="geometry" />
        </mxCell>
        <mxCell id="JBs7FlKlPy1bEGtmJA6x-12" value="31" style="rounded=0;whiteSpace=wrap;html=1;" vertex="1" parent="1">
          <mxGeometry x="460" y="20" width="40" height="40" as="geometry" />
        </mxCell>
        <mxCell id="JBs7FlKlPy1bEGtmJA6x-13" value="l = 0" style="text;html=1;align=center;verticalAlign=middle;whiteSpace=wrap;rounded=0;" vertex="1" parent="1">
          <mxGeometry x="100" y="70" width="40" height="30" as="geometry" />
        </mxCell>
        <mxCell id="JBs7FlKlPy1bEGtmJA6x-14" value="r = 10" style="text;html=1;align=center;verticalAlign=middle;whiteSpace=wrap;rounded=0;" vertex="1" parent="1">
          <mxGeometry x="500" y="70" width="40" height="30" as="geometry" />
        </mxCell>
        <mxCell id="JBs7FlKlPy1bEGtmJA6x-16" value="m = 5" style="text;html=1;align=center;verticalAlign=middle;whiteSpace=wrap;rounded=0;" vertex="1" parent="1">
          <mxGeometry x="300" y="70" width="40" height="30" as="geometry" />
        </mxCell>
        <mxCell id="JBs7FlKlPy1bEGtmJA6x-18" value="n = 25" style="text;html=1;align=center;verticalAlign=middle;whiteSpace=wrap;rounded=0;" vertex="1" parent="1">
          <mxGeometry x="20" y="30" width="40" height="30" as="geometry" />
        </mxCell>
        <mxCell id="JBs7FlKlPy1bEGtmJA6x-19" value="" style="rounded=0;whiteSpace=wrap;html=1;fillColor=#f8cecc;strokeColor=#b85450;" vertex="1" parent="1">
          <mxGeometry x="100" y="100" width="40" height="40" as="geometry" />
        </mxCell>
        <mxCell id="JBs7FlKlPy1bEGtmJA6x-20" value="4" style="rounded=0;whiteSpace=wrap;html=1;fillColor=#f8cecc;strokeColor=#b85450;" vertex="1" parent="1">
          <mxGeometry x="140" y="100" width="40" height="40" as="geometry" />
        </mxCell>
        <mxCell id="JBs7FlKlPy1bEGtmJA6x-21" value="27" style="rounded=0;whiteSpace=wrap;html=1;fillColor=#ffe6cc;strokeColor=#d79b00;" vertex="1" parent="1">
          <mxGeometry x="420" y="100" width="40" height="40" as="geometry" />
        </mxCell>
        <mxCell id="JBs7FlKlPy1bEGtmJA6x-22" value="25" style="rounded=0;whiteSpace=wrap;html=1;" vertex="1" parent="1">
          <mxGeometry x="380" y="100" width="40" height="40" as="geometry" />
        </mxCell>
        <mxCell id="JBs7FlKlPy1bEGtmJA6x-23" value="21" style="rounded=0;whiteSpace=wrap;html=1;" vertex="1" parent="1">
          <mxGeometry x="340" y="100" width="40" height="40" as="geometry" />
        </mxCell>
        <mxCell id="JBs7FlKlPy1bEGtmJA6x-24" value="16" style="rounded=0;whiteSpace=wrap;html=1;fillColor=#f8cecc;strokeColor=#b85450;" vertex="1" parent="1">
          <mxGeometry x="300" y="100" width="40" height="40" as="geometry" />
        </mxCell>
        <mxCell id="JBs7FlKlPy1bEGtmJA6x-25" value="7" style="rounded=0;whiteSpace=wrap;html=1;fillColor=#f8cecc;strokeColor=#b85450;" vertex="1" parent="1">
          <mxGeometry x="180" y="100" width="40" height="40" as="geometry" />
        </mxCell>
        <mxCell id="JBs7FlKlPy1bEGtmJA6x-26" value="9" style="rounded=0;whiteSpace=wrap;html=1;fillColor=#f8cecc;strokeColor=#b85450;" vertex="1" parent="1">
          <mxGeometry x="220" y="100" width="40" height="40" as="geometry" />
        </mxCell>
        <mxCell id="JBs7FlKlPy1bEGtmJA6x-27" value="12" style="rounded=0;whiteSpace=wrap;html=1;fillColor=#f8cecc;strokeColor=#b85450;" vertex="1" parent="1">
          <mxGeometry x="260" y="100" width="40" height="40" as="geometry" />
        </mxCell>
        <mxCell id="JBs7FlKlPy1bEGtmJA6x-28" value="1" style="rounded=0;whiteSpace=wrap;html=1;fillColor=#f8cecc;strokeColor=#b85450;" vertex="1" parent="1">
          <mxGeometry x="100" y="100" width="40" height="40" as="geometry" />
        </mxCell>
        <mxCell id="JBs7FlKlPy1bEGtmJA6x-29" value="35" style="rounded=0;whiteSpace=wrap;html=1;" vertex="1" parent="1">
          <mxGeometry x="500" y="100" width="40" height="40" as="geometry" />
        </mxCell>
        <mxCell id="JBs7FlKlPy1bEGtmJA6x-30" value="31" style="rounded=0;whiteSpace=wrap;html=1;" vertex="1" parent="1">
          <mxGeometry x="460" y="100" width="40" height="40" as="geometry" />
        </mxCell>
        <mxCell id="JBs7FlKlPy1bEGtmJA6x-31" value="l = 6" style="text;html=1;align=center;verticalAlign=middle;whiteSpace=wrap;rounded=0;" vertex="1" parent="1">
          <mxGeometry x="340" y="150" width="40" height="30" as="geometry" />
        </mxCell>
        <mxCell id="JBs7FlKlPy1bEGtmJA6x-32" value="r = 10" style="text;html=1;align=center;verticalAlign=middle;whiteSpace=wrap;rounded=0;" vertex="1" parent="1">
          <mxGeometry x="500" y="150" width="40" height="30" as="geometry" />
        </mxCell>
        <mxCell id="JBs7FlKlPy1bEGtmJA6x-33" value="m = 8" style="text;html=1;align=center;verticalAlign=middle;whiteSpace=wrap;rounded=0;" vertex="1" parent="1">
          <mxGeometry x="420" y="150" width="40" height="30" as="geometry" />
        </mxCell>
        <mxCell id="JBs7FlKlPy1bEGtmJA6x-34" value="" style="rounded=0;whiteSpace=wrap;html=1;fillColor=#f8cecc;strokeColor=#b85450;" vertex="1" parent="1">
          <mxGeometry x="100" y="180" width="40" height="40" as="geometry" />
        </mxCell>
        <mxCell id="JBs7FlKlPy1bEGtmJA6x-35" value="4" style="rounded=0;whiteSpace=wrap;html=1;fillColor=#f8cecc;strokeColor=#b85450;" vertex="1" parent="1">
          <mxGeometry x="140" y="180" width="40" height="40" as="geometry" />
        </mxCell>
        <mxCell id="JBs7FlKlPy1bEGtmJA6x-36" value="27" style="rounded=0;whiteSpace=wrap;html=1;fillColor=#f8cecc;strokeColor=#b85450;" vertex="1" parent="1">
          <mxGeometry x="420" y="180" width="40" height="40" as="geometry" />
        </mxCell>
        <mxCell id="JBs7FlKlPy1bEGtmJA6x-37" value="25" style="rounded=0;whiteSpace=wrap;html=1;" vertex="1" parent="1">
          <mxGeometry x="380" y="180" width="40" height="40" as="geometry" />
        </mxCell>
        <mxCell id="JBs7FlKlPy1bEGtmJA6x-38" value="21" style="rounded=0;whiteSpace=wrap;html=1;fillColor=#ffe6cc;strokeColor=#d79b00;" vertex="1" parent="1">
          <mxGeometry x="340" y="180" width="40" height="40" as="geometry" />
        </mxCell>
        <mxCell id="JBs7FlKlPy1bEGtmJA6x-39" value="16" style="rounded=0;whiteSpace=wrap;html=1;fillColor=#f8cecc;strokeColor=#b85450;" vertex="1" parent="1">
          <mxGeometry x="300" y="180" width="40" height="40" as="geometry" />
        </mxCell>
        <mxCell id="JBs7FlKlPy1bEGtmJA6x-40" value="7" style="rounded=0;whiteSpace=wrap;html=1;fillColor=#f8cecc;strokeColor=#b85450;" vertex="1" parent="1">
          <mxGeometry x="180" y="180" width="40" height="40" as="geometry" />
        </mxCell>
        <mxCell id="JBs7FlKlPy1bEGtmJA6x-41" value="9" style="rounded=0;whiteSpace=wrap;html=1;fillColor=#f8cecc;strokeColor=#b85450;" vertex="1" parent="1">
          <mxGeometry x="220" y="180" width="40" height="40" as="geometry" />
        </mxCell>
        <mxCell id="JBs7FlKlPy1bEGtmJA6x-42" value="12" style="rounded=0;whiteSpace=wrap;html=1;fillColor=#f8cecc;strokeColor=#b85450;" vertex="1" parent="1">
          <mxGeometry x="260" y="180" width="40" height="40" as="geometry" />
        </mxCell>
        <mxCell id="JBs7FlKlPy1bEGtmJA6x-43" value="1" style="rounded=0;whiteSpace=wrap;html=1;fillColor=#f8cecc;strokeColor=#b85450;" vertex="1" parent="1">
          <mxGeometry x="100" y="180" width="40" height="40" as="geometry" />
        </mxCell>
        <mxCell id="JBs7FlKlPy1bEGtmJA6x-44" value="35" style="rounded=0;whiteSpace=wrap;html=1;fillColor=#f8cecc;strokeColor=#b85450;" vertex="1" parent="1">
          <mxGeometry x="500" y="180" width="40" height="40" as="geometry" />
        </mxCell>
        <mxCell id="JBs7FlKlPy1bEGtmJA6x-45" value="31" style="rounded=0;whiteSpace=wrap;html=1;fillColor=#f8cecc;strokeColor=#b85450;" vertex="1" parent="1">
          <mxGeometry x="460" y="180" width="40" height="40" as="geometry" />
        </mxCell>
        <mxCell id="JBs7FlKlPy1bEGtmJA6x-46" value="l = m = 6" style="text;html=1;align=center;verticalAlign=middle;whiteSpace=wrap;rounded=0;" vertex="1" parent="1">
          <mxGeometry x="330" y="230" width="60" height="30" as="geometry" />
        </mxCell>
        <mxCell id="JBs7FlKlPy1bEGtmJA6x-47" value="r = 7" style="text;html=1;align=center;verticalAlign=middle;whiteSpace=wrap;rounded=0;" vertex="1" parent="1">
          <mxGeometry x="380" y="230" width="40" height="30" as="geometry" />
        </mxCell>
        <mxCell id="JBs7FlKlPy1bEGtmJA6x-50" value="" style="rounded=0;whiteSpace=wrap;html=1;fillColor=#f8cecc;strokeColor=#b85450;" vertex="1" parent="1">
          <mxGeometry x="100" y="260" width="40" height="40" as="geometry" />
        </mxCell>
        <mxCell id="JBs7FlKlPy1bEGtmJA6x-51" value="4" style="rounded=0;whiteSpace=wrap;html=1;fillColor=#f8cecc;strokeColor=#b85450;" vertex="1" parent="1">
          <mxGeometry x="140" y="260" width="40" height="40" as="geometry" />
        </mxCell>
        <mxCell id="JBs7FlKlPy1bEGtmJA6x-52" value="27" style="rounded=0;whiteSpace=wrap;html=1;fillColor=#f8cecc;strokeColor=#b85450;" vertex="1" parent="1">
          <mxGeometry x="420" y="260" width="40" height="40" as="geometry" />
        </mxCell>
        <mxCell id="JBs7FlKlPy1bEGtmJA6x-53" value="25" style="rounded=0;whiteSpace=wrap;html=1;fillColor=#d5e8d4;strokeColor=#82b366;" vertex="1" parent="1">
          <mxGeometry x="380" y="260" width="40" height="40" as="geometry" />
        </mxCell>
        <mxCell id="JBs7FlKlPy1bEGtmJA6x-54" value="21" style="rounded=0;whiteSpace=wrap;html=1;fillColor=#f8cecc;strokeColor=#b85450;" vertex="1" parent="1">
          <mxGeometry x="340" y="260" width="40" height="40" as="geometry" />
        </mxCell>
        <mxCell id="JBs7FlKlPy1bEGtmJA6x-55" value="16" style="rounded=0;whiteSpace=wrap;html=1;fillColor=#f8cecc;strokeColor=#b85450;" vertex="1" parent="1">
          <mxGeometry x="300" y="260" width="40" height="40" as="geometry" />
        </mxCell>
        <mxCell id="JBs7FlKlPy1bEGtmJA6x-56" value="7" style="rounded=0;whiteSpace=wrap;html=1;fillColor=#f8cecc;strokeColor=#b85450;" vertex="1" parent="1">
          <mxGeometry x="180" y="260" width="40" height="40" as="geometry" />
        </mxCell>
        <mxCell id="JBs7FlKlPy1bEGtmJA6x-57" value="9" style="rounded=0;whiteSpace=wrap;html=1;fillColor=#f8cecc;strokeColor=#b85450;" vertex="1" parent="1">
          <mxGeometry x="220" y="260" width="40" height="40" as="geometry" />
        </mxCell>
        <mxCell id="JBs7FlKlPy1bEGtmJA6x-58" value="12" style="rounded=0;whiteSpace=wrap;html=1;fillColor=#f8cecc;strokeColor=#b85450;" vertex="1" parent="1">
          <mxGeometry x="260" y="260" width="40" height="40" as="geometry" />
        </mxCell>
        <mxCell id="JBs7FlKlPy1bEGtmJA6x-59" value="1" style="rounded=0;whiteSpace=wrap;html=1;fillColor=#f8cecc;strokeColor=#b85450;" vertex="1" parent="1">
          <mxGeometry x="100" y="260" width="40" height="40" as="geometry" />
        </mxCell>
        <mxCell id="JBs7FlKlPy1bEGtmJA6x-60" value="35" style="rounded=0;whiteSpace=wrap;html=1;fillColor=#f8cecc;strokeColor=#b85450;" vertex="1" parent="1">
          <mxGeometry x="500" y="260" width="40" height="40" as="geometry" />
        </mxCell>
        <mxCell id="JBs7FlKlPy1bEGtmJA6x-61" value="31" style="rounded=0;whiteSpace=wrap;html=1;fillColor=#f8cecc;strokeColor=#b85450;" vertex="1" parent="1">
          <mxGeometry x="460" y="260" width="40" height="40" as="geometry" />
        </mxCell>
        <mxCell id="JBs7FlKlPy1bEGtmJA6x-62" value="l = m = r = 7" style="text;html=1;align=center;verticalAlign=middle;whiteSpace=wrap;rounded=0;" vertex="1" parent="1">
          <mxGeometry x="360" y="310" width="80" height="30" as="geometry" />
        </mxCell>
      </root>
    </mxGraphModel>
  </diagram>
</mxfile>
